<svg width="93" height="90" viewBox="0 0 93 90" fill="none" xmlns="http://www.w3.org/2000/svg">
<path d="M24.6027 51.8059L23.1313 57.2933C22.9144 58.0966 22.8195 59.3356 22.4708 60.6081C22.1689 61.7453 21.7169 64.1933 22.177 67.6832C22.4697 69.9039 24.5411 73.375 27.0157 73.0488C29.9345 72.664 31.5954 70.573 32.5786 69.2169L34.5367 66.4412C34.969 65.8032 35.3379 65.1736 35.2459 64.4756C35.1455 63.7142 34.5793 63.337 32.9931 63.5461C31.8509 63.6967 31.3851 64.0808 30.2667 65.3902C28.6441 67.2825 27.8059 67.7803 27.2983 67.8472C27.108 67.8723 26.8375 67.7789 26.7036 66.7637C26.5865 65.8754 26.641 63.3506 27.4967 59.5582C28.0756 57.0934 29.22 52.5529 29.9257 50.0714C30.84 46.7232 33.0253 44.6922 32.5736 41.2658C32.5318 40.9486 32.3714 40.7115 32.156 40.5462C31.5814 40.1055 30.6297 40.231 30.0586 40.3063C28.4723 40.5154 27.5324 41.2203 27.1203 42.5011C26.4278 44.5936 25.7166 45.0746 21.132 48.0029C19.045 49.3109 18.1183 49.6267 17.928 49.6518C17.8011 49.6685 17.6658 49.6218 17.6491 49.4949C17.5487 48.7335 18.4664 45.9013 18.5515 45.5673C18.76 44.7006 18.9636 44.2864 19.062 43.5634C19.6521 39.2251 22.8255 35.3854 23.7397 32.0372C23.8248 31.7032 23.8848 31.1789 23.9064 30.8532C23.9546 29.7495 25.4287 28.1995 25.253 26.8671C25.2028 26.4864 25.0257 26.1224 24.7134 25.7117C24.1521 24.8819 23.4207 24.7201 22.4055 24.8539C21.073 25.0296 19.8158 25.7763 19.4253 26.7315C16.7001 33.4816 15.0285 39.8991 12.6462 49.2507C12.4761 49.9186 12.2474 50.1424 11.9936 50.1759C11.2956 50.2679 10.6793 49.5099 9.09298 49.7191C8.64882 49.7776 8.39501 49.8111 8.1914 50.2252C7.98778 50.6394 7.94942 50.8381 7.99124 51.1554C8.04979 51.5995 8.08325 51.8533 8.5427 52.8902C9.36469 54.7184 10.9328 55.3509 11.0917 56.5565C11.2088 57.4448 8.26994 71.3885 8.08854 73.93C7.74247 79.1399 6.45874 80.6647 6.96897 84.5353C7.1948 86.2484 7.42351 86.0246 7.99804 86.4653C8.35711 86.7408 8.61928 86.7708 9.19034 86.6955C10.0152 86.5867 10.6379 85.9237 11.3024 85.5779C11.6029 85.4091 12.5178 84.5139 12.5276 83.6089C12.6305 74.1059 14.4702 65.5359 16.31 56.966C16.5102 56.0359 16.5569 55.9006 16.8323 55.5415C17.1077 55.1824 17.8741 54.6296 19.9777 53.4485C22.0814 52.2674 22.801 51.8498 23.3937 51.4489C24.4606 50.7273 24.5875 50.7105 24.6509 50.7022C24.7144 50.6938 24.7778 50.6855 24.7945 50.8124C24.8029 50.8758 24.7645 51.0745 24.6027 51.8059ZM37.0722 27.8912C36.8297 26.0511 35.6673 25.5588 33.6369 25.8264C31.0354 26.1694 29.9086 27.4153 30.3603 30.8417C30.6865 33.3163 31.862 33.4195 33.7021 33.1769C34.6539 33.0515 35.2766 32.3884 35.8574 31.4081L36.909 29.5911C37.0659 29.3122 37.181 28.716 37.0722 27.8912ZM44.4183 61.459C44.8339 60.6941 44.889 60.6223 44.9524 60.6139C45.1428 60.5889 45.1595 60.7158 45.1762 60.8427C45.1846 60.9061 45.1713 61.2952 45.1581 61.6843C45.1232 62.3989 45.197 63.9385 45.289 64.6365C45.4396 65.7786 45.8439 66.8872 46.3167 67.535C47.1017 68.5935 47.7781 68.8271 48.4578 69.5767C48.7618 69.9239 49.9709 70.281 51.6206 70.0635C52.5089 69.9464 52.746 69.7861 53.1232 69.2199C53.3352 68.8692 53.4036 68.4083 53.3868 68.2814C53.2948 67.5834 53.0627 67.2913 52.56 66.9057C52.1291 66.5751 50.8148 65.9092 50.6091 64.8389C50.3867 63.6417 50.1378 63.2226 49.9873 62.0805C49.9371 61.6998 50.0579 57.2297 50.2497 56.2361C50.9102 52.9213 51.671 50.368 53.2714 46.3484C53.5134 45.7355 53.6584 44.8772 53.6333 44.6868C53.5079 43.735 53.2422 43.1891 52.4557 43.0991C51.5423 43.0258 51.3401 42.4715 50.1346 42.6304C49.5635 42.7057 49.1912 42.8194 48.869 43.3137C48.5469 43.808 48.3216 44.5478 48.0113 45.6216C47.2205 48.4371 44.349 51.1395 39.3904 61.0244C38.1136 63.5812 38.0034 63.7248 37.8765 63.7415C37.813 63.7499 37.6861 63.7666 37.661 63.5763C37.6443 63.4494 38.0028 61.2719 38.173 60.6039C39.5726 55.0614 40.5754 51.8952 41.1912 50.2002C42.3292 47.0807 43.3557 45.0733 44.0084 44.1481C44.5509 43.3665 45.1199 41.8067 44.9693 40.6646C44.9275 40.3474 44.7504 39.9834 44.5817 39.6829C44.3244 39.2004 43.8852 38.8064 42.0451 39.0489C40.5857 39.2413 40.2301 39.4819 39.7894 40.0564C39.4589 40.4873 39.4373 40.8129 39.1402 41.4976C37.1626 46.0834 36.1765 49.3765 34.9686 53.9254L34.1095 57.2018C33.5906 59.1422 32.9818 61.8692 32.9336 62.9729C32.8171 64.5376 32.4601 65.7466 32.711 67.6502C32.803 68.3481 33.1405 68.9492 34.8473 70.1444C36.1316 71.0725 36.6643 71.1959 37.4257 71.0955C39.2658 70.853 39.5329 70.4304 39.9101 69.8643C40.1772 69.4418 40.4526 69.0827 40.8466 68.6434C41.122 68.2843 41.4358 67.7265 41.8731 66.636C42.2168 65.8161 43.4385 63.3311 44.4183 61.459ZM60.4907 63.4717C60.3003 63.4968 60.0298 63.4034 59.896 62.3882C59.7789 61.4998 59.8334 58.9751 60.6891 55.1827C61.2679 52.7179 62.4123 48.1774 63.1181 45.6959C64.0323 42.3477 66.2176 40.3167 65.7659 36.8903C65.7241 36.573 65.5638 36.336 65.3483 36.1707C64.7738 35.73 63.822 35.8555 63.251 35.9308C61.6647 36.1399 60.7164 36.7813 60.3126 38.1256C58.7359 43.3041 57.6249 48.0984 56.3236 52.9178C56.1067 53.721 56.0119 54.9601 55.6632 56.2326C55.3612 57.3698 54.9093 59.8178 55.3693 63.3076C55.6621 65.5284 57.7335 68.9995 60.2081 68.6733C63.1268 68.2885 64.7878 66.1975 65.771 64.8414L67.729 62.0657C68.1613 61.4277 68.5302 60.7981 68.4382 60.1001C68.3378 59.3387 67.7717 58.9615 66.1854 59.1706C65.0433 59.3211 64.5775 59.7053 63.459 61.0147C61.8364 62.907 60.9983 63.4048 60.4907 63.4717ZM70.2646 23.5157C70.022 21.6756 68.8597 21.1833 66.8293 21.4509C64.2278 21.7938 63.1009 23.0398 63.5526 26.4662C63.8788 28.9408 65.0544 29.044 66.8945 28.8014C67.8462 28.676 68.4689 28.0129 69.0498 27.0326L70.1013 25.2156C70.2582 24.9367 70.3733 24.3405 70.2646 23.5157Z" fill="#4FD1C5"/>
<path d="M67.0249 29.1562C66.9841 28.8469 66.9042 28.7001 66.7852 28.7157L66.0161 29.2166C65.9941 29.05 65.8833 28.9436 65.6835 28.8973L65.3933 28.8992C65.2029 28.9243 64.976 29.039 64.7124 29.2432C64.6491 29.1305 64.574 29.0193 64.4869 28.9098C64.3998 28.8002 64.3262 28.701 64.2661 28.6121C63.8784 28.058 63.4828 27.4444 63.0793 26.7714C62.6966 26.0714 62.3304 25.4056 61.9809 24.7738C61.6551 24.139 61.3957 23.6406 61.2028 23.2787C61.0668 22.9819 60.8986 22.532 60.6981 21.9291C60.4975 21.3261 60.2751 20.5566 60.0306 19.6205C60.3143 19.7526 60.5276 19.8092 60.6703 19.7904C60.8369 19.7684 60.9586 19.4982 61.0355 18.9797C61.1194 19.0654 61.2566 19.0958 61.4469 19.0707C61.5897 19.0519 61.6905 18.9902 61.7493 18.8856L62.2075 17.9537L62.8781 18.0832L62.9138 18.0785C62.9614 18.0722 63.0059 18.0421 63.0472 17.9883C63.0885 17.9344 63.1536 17.8774 63.2425 17.8173C63.4172 17.6732 63.5521 17.5949 63.6473 17.5824L63.7591 17.6039C64.3916 17.811 64.8413 18.2843 65.1082 19.0238C65.7749 20.7757 66.3224 21.6234 66.7507 21.5669C67.179 21.5105 67.619 20.9925 68.0709 20.0131C68.2968 19.5233 68.5134 18.9622 68.7205 18.3297C68.9514 17.6941 69.1729 16.9871 69.385 16.2087C69.4702 16.488 69.5366 16.6244 69.5842 16.6182C69.7032 16.6025 69.8662 16.2784 70.0733 15.6459C70.3042 15.0103 70.6838 14.1251 71.212 12.9903C71.508 12.2977 71.8883 11.5092 72.3527 10.6249C72.8409 9.73753 73.3616 8.82162 73.915 7.8772C74.4683 6.93279 75.0041 6.0391 75.5224 5.19613C76.0644 4.35003 76.5492 3.62041 76.9768 3.00728C77.4043 2.39414 77.7261 1.98861 77.942 1.79069C78.7647 1.05285 79.4001 0.363898 79.8483 -0.276167C79.8464 -0.106472 79.8311 0.0528954 79.8024 0.201935C79.7943 0.324042 79.7933 0.408889 79.7996 0.456477C79.8122 0.551654 79.866 0.592969 79.9612 0.580422L80.8947 -0.0509924L80.9135 0.0917728C80.9386 0.282126 80.9987 0.37103 81.0939 0.358483C81.1653 0.349074 81.2939 0.22318 81.4799 -0.0191968C81.6658 -0.261574 81.7644 -0.431919 81.7756 -0.530232L81.7701 -0.0211452L82.8895 -0.894937L82.6886 -0.214855C83.0348 -0.526777 83.2912 -0.693716 83.4578 -0.715673C83.553 -0.728219 83.6322 -0.678144 83.6955 -0.565446C83.7556 -0.476543 83.7919 -0.384503 83.8045 -0.289326C83.8233 -0.146561 83.7858 0.0278392 83.6919 0.233876C83.598 0.439913 83.4732 0.686345 83.3173 0.973173C83.1996 1.18235 82.9993 1.49924 82.7164 1.92386C82.4541 2.32155 82.0488 2.91965 81.5005 3.71816C80.949 4.49288 80.2194 5.56946 79.3118 6.94791C79.067 7.29487 78.699 7.90016 78.2077 8.76379C77.7132 9.60361 77.1527 10.5853 76.5261 11.7088C75.9202 12.8054 75.3159 13.9139 74.7132 15.0343C74.1104 16.1547 73.5784 17.1689 73.1171 18.077C72.6527 18.9612 72.3282 19.6213 72.1436 20.0572L70.4248 24.0965C70.0555 24.9682 69.7507 25.6862 69.5104 26.2504C69.267 26.7909 69.0745 27.1673 68.933 27.3796C68.6326 27.8549 68.2902 28.2874 67.9058 28.677L67.561 28.5408L67.299 28.7569L67.0249 29.1562Z" fill="#4FD1C5"/>
</svg>
