<svg width="391" height="301" viewBox="0 0 391 301" fill="none" xmlns="http://www.w3.org/2000/svg">
<path fill-rule="evenodd" clip-rule="evenodd" d="M121.858 136.728C123.28 151.089 124.703 165.451 126.124 179.811C133.869 175.393 141.613 170.974 149.356 166.555V199.272V207.871C149.356 208.632 148.905 211.246 149.356 211.905C149.74 212.464 152.577 212.48 153.248 212.574C157.626 213.187 162.015 213.733 166.41 214.218C177.994 215.497 190.392 217.33 202.02 215.86C212.127 214.582 221.926 210.987 231.161 206.804C234.403 205.335 237.6 203.764 240.737 202.084C241.402 201.728 243.817 200.887 244.179 200.162C244.474 199.57 243.781 197.489 243.689 196.867C243.299 194.242 242.908 191.618 242.518 188.994L237.068 152.352L247.363 162.633C248.17 163.438 249.701 165.725 250.817 166.082C251.636 166.344 253.662 165.533 254.471 165.378C260.3 164.254 266.13 163.131 271.96 162.008C273.318 161.746 276.379 161.756 277.523 160.935C278.14 160.493 278.169 159.594 278.386 158.742C279.808 153.171 281.23 147.601 282.652 142.032C282.908 141.028 284.337 137.865 283.974 136.854C283.843 136.492 283.213 136.244 282.827 136.008C274.029 130.634 265.23 125.26 256.432 119.887C251.612 116.943 246.792 113.999 241.972 111.055C239.953 109.822 237.473 107.6 235.185 106.91C233.765 106.482 231.699 106.802 230.229 106.76C227.243 106.675 224.257 106.59 221.27 106.505C220.803 106.492 219.165 106.158 218.772 106.434C218.444 106.663 218.58 106.982 218.473 107.529C218.21 108.863 218.208 110.302 218.079 111.656C217.975 112.743 218.181 114.736 217.691 115.72C217.378 116.349 217.775 116.098 217.352 116.402C216.848 116.764 215.239 116.648 214.639 116.717C211.713 117.058 208.786 117.397 205.86 117.737C202.381 118.141 198.863 118.899 195.367 118.55C190.068 118.021 184.354 118.047 179.151 116.931C177.798 116.641 177.311 115.879 176.268 114.837C174.232 112.804 172.217 110.748 170.159 108.736C169.15 107.751 169.582 107.918 168.542 108.291C167.239 108.76 165.917 109.891 164.737 110.609C160.217 113.362 155.698 116.115 151.178 118.868L123.585 135.676C123.009 136.027 122.433 136.378 121.858 136.728Z" fill="#4FD1C5"/>
<path fill-rule="evenodd" clip-rule="evenodd" d="M385.784 138.514C380.095 160.109 368.655 183.655 345.607 190.539C340.004 192.212 334.553 193.475 328.733 192.838C328.179 192.777 327.715 192.855 327.188 192.865C326.244 192.883 327.06 193.222 326.001 192.896C325.175 192.641 324.403 192.003 323.543 191.721C321.255 190.973 318.817 190.829 316.493 190.224C310.782 188.738 304.896 186.904 299.362 184.855C296.757 183.89 294.362 182.547 291.911 181.254C289.419 179.941 286.779 179.125 284.259 177.921C282.268 176.968 278.857 175.728 277.457 173.941C275.964 172.037 278.029 167.982 278.62 165.957C280.627 159.067 283.017 152.278 284.526 145.25C289.736 151.288 296.967 155.027 304.452 157.438C308.514 158.747 312.692 159.693 316.916 160.285C320.752 160.822 324.889 161.473 328.734 160.71C331.636 160.134 335.279 158.799 337.352 156.584C338.092 155.793 338.98 154.344 338.565 153.195C338.039 151.737 336.506 152.423 335.676 151.335C334.954 150.387 335.067 148.17 334.836 147.015C334.429 144.972 333.869 142.986 333.186 141.019C331.86 137.201 330.208 133.374 329.812 129.311C329.467 125.786 330.27 122.452 332.029 119.394C332.859 117.948 334.946 114.014 336.983 114.177C339.22 114.357 336.204 123.783 336.105 125.706C335.714 133.328 336.737 141.45 340.648 148.131C342.146 150.689 344.311 153.667 347.509 153.984C350.896 154.32 353.628 151.655 355.24 148.959C359.174 142.381 357.19 133.354 355.198 126.46C352.754 118.001 346.376 112.171 342.343 104.574C348.364 105.179 351.589 109.004 354.679 113.858C358.081 119.2 360.73 125.615 362.036 131.831C362.695 134.972 362.24 138.126 362.244 141.298C362.245 142.352 362.245 146.239 363.963 146.086C365.799 145.922 366.429 141.538 366.699 140.201C367.318 137.133 367.988 134.065 368.525 130.982C369.476 125.527 369.899 119.941 371.038 114.524C371.231 113.608 371.614 111.068 372.985 111.754C374.042 112.282 373.872 116.211 373.911 117.125C374.005 119.375 374.139 121.626 374.157 123.878C374.184 127.217 373.518 130.674 373.845 133.993C374.058 136.161 375.222 138.557 376.665 135.633C378.095 132.732 378.387 129.116 379.185 125.997C380.023 122.722 380.888 119.399 382.667 116.49C383.16 115.684 383.69 114.402 384.787 114.782C385.584 115.058 386.172 116.947 386.418 117.613C387.529 120.625 387.341 123.974 387.271 127.126C387.185 130.99 386.77 134.768 385.784 138.514ZM274.866 144.118C274.562 144.019 273.271 143.897 272.951 143.869C272.575 143.836 273.002 143.145 272.093 143.341C272.269 143.776 272.58 144.066 273.028 144.211C271.662 144.673 270.655 143.532 269.72 143.386C268.827 143.245 268.789 143.386 267.907 144.329C266.952 143.164 267.131 143.891 266.345 143.891C266.059 143.892 266.047 144.323 265.582 144.272C265.176 144.226 265.133 143.61 264.893 143.538C263.589 143.143 262.248 145.128 260.77 143.406C260.411 145.198 256.307 142.954 254.728 143.269C253.073 143.598 253.787 144.191 252.449 143.177C251.174 142.211 251.53 142.853 250.047 143.644C250.081 143.625 249.21 144.214 249.291 144.223C248.264 144.103 248.323 143.042 247.023 143.098C245.647 143.158 245.06 144.237 243.801 142.909C243.527 143.903 243.47 143.475 242.825 143.726C242.47 143.81 242.16 143.717 241.893 143.446C241.813 143.719 241.636 143.887 241.361 143.949C240.659 144.012 239.339 144.109 238.701 143.771C237.743 143.263 238.513 143.068 237.849 142.497C237.551 144.072 236.899 143.737 235.523 143.884C234.473 143.997 234.242 143.675 233.239 143.518C232.252 143.364 230.976 143.747 230.012 143.91C229.614 143.978 229.082 144.255 228.677 144.158C228.312 144.07 228.156 143.787 227.938 143.713C227.674 143.624 227.73 143.392 227.273 143.28C226.957 143.203 226.393 143.499 226.078 143.55C223.832 143.915 221.675 143.918 219.533 143.035C220.588 144.889 217.067 143.888 216.439 143.12C215.655 144.35 214.705 143.482 213.124 143.578C211.601 143.67 209.31 144.137 208.692 142.24C208.571 142.625 207.707 143.744 207.363 143.915C206.365 144.41 206.246 143.678 205.318 143.38C204.054 142.974 204.318 143.744 203.534 143.901C202.212 144.166 201.497 143.234 200.328 142.739C200.279 143.509 200.253 143.982 199.588 144.461C198.999 142.316 196.895 144.637 197.256 141.769C196.456 142.29 195.33 142.691 195.102 143.744C196.441 143.376 195.245 144.251 195.189 144.28C195.012 144.372 194.415 143.534 194.276 143.415C194.238 143.811 194.2 144.207 194.163 144.602C193.63 144.336 193.129 143.858 192.696 143.619C192.306 143.404 192.865 142.956 192.206 142.925C191.859 142.908 191.497 143.66 191.133 143.724C190.576 143.822 190.843 143.023 190.61 143.049C190.255 143.09 189.676 143.61 189.407 143.6C188.527 143.567 189.123 143.157 188.45 142.969C187.25 142.633 187.327 143.419 186.463 143.702C184.488 144.35 184.686 141.366 182.676 143.357C182.195 143.833 181.886 144.568 181.227 144.527C179.863 144.442 180.342 142.825 180.619 142.033C180.906 142.174 175.636 144.881 175.678 144.775C175.711 144.126 176.54 143.626 175.799 143.049C175.193 144.349 174.556 144.371 173.159 144.613C172.48 144.731 172.346 144.888 171.62 144.606C171.157 144.427 170.846 143.688 170.386 143.647C170.448 143.653 169.603 144.296 169.474 144.354C168.712 144.697 168.229 144.308 167.489 144.449C166.857 144.57 166.608 145.107 165.98 144.96C165.141 144.764 165.634 143.762 164.48 144.042C164.085 144.137 163.848 144.897 163.227 145.054C162.258 145.299 161.071 144.842 160.047 145.081C159.234 145.271 158.631 145.351 157.92 145.39C157.346 145.422 157.582 144.976 156.526 145.503L156.078 144.373C155.548 144.849 155.019 145.324 154.49 145.801C154.39 145.374 154.326 144.942 154.3 144.504C153.51 145.295 152.517 145.43 151.456 145.501C150.308 145.578 149.452 145.828 148.334 146.038C147.981 146.104 147.071 146.21 146.781 146.087C146.823 146.105 146.237 145.861 146.414 145.907C146.338 145.752 146.267 145.595 146.202 145.434C146.103 144.989 145.782 144.969 145.24 145.376C144.96 145.333 144.416 144.965 144.137 145.055C143.416 145.289 143.514 145.848 142.796 145.766C142.33 145.713 142.092 145.024 141.607 144.977C140.864 144.906 140.221 145.737 139.552 145.918C141.586 145.366 136.913 145.795 138.366 145.833C137.413 145.808 136.425 145.761 135.544 146.187C135.058 145.855 135.649 145.186 135.157 144.911C134.711 144.662 134.677 145.321 134.625 145.335C134.906 145.256 134.766 145.816 134.484 145.916C133.608 146.227 132.906 145.437 132.861 144.653C132.116 145.774 131.907 145.324 130.811 145.393C129.731 145.461 128.799 146.027 127.718 146.017C125.581 145.997 124.13 145.254 123.417 143.345C125.694 143.623 127.987 142.158 130.214 142.503C130.946 142.616 131.403 143.166 132.045 143.068C132.835 142.948 133.387 142.086 134.4 141.993C136.635 141.789 138.838 141.988 141.088 141.646C143.775 141.236 146.58 140.994 149.293 141.193C151.39 141.348 153.088 140.546 155.215 140.391C157.964 140.191 160.736 140.156 163.49 140.011C166.319 139.863 169.365 139.411 172.186 139.556C173.067 139.601 173.826 139.687 174.7 139.635C175.07 139.613 175.42 139.361 175.808 139.399C176.313 139.448 176.53 139.965 177.054 139.947C177.945 139.916 178.897 139.183 179.956 139.163C181.697 139.13 183.43 139.134 185.175 139.034C186.712 138.947 188.358 138.588 189.888 138.608C190.967 138.621 191.233 139.54 191.862 139.636C192.993 139.806 198.712 136.551 199.207 139.473C202.184 137.434 206.177 139.16 209.492 138.777C213.75 138.285 218.086 138.724 222.373 138.548C226.735 138.37 231.222 138.535 235.567 138.947C237.367 139.117 239.105 139.277 240.91 139.174C241.715 139.127 242.645 138.922 243.449 139.107C243.644 139.153 245.136 140.194 244.951 140.224C245.766 139.492 245.214 139.385 246.648 139.348C247.753 139.319 248.799 139.557 249.898 139.622C251.87 139.739 253.858 139.466 255.826 139.526C257.469 139.576 259.076 139.819 260.728 139.83C262.509 139.844 264.612 139.894 265.901 141.329C265.764 140.879 265.629 140.428 265.493 139.977C267.48 140.133 269.445 140.842 271.454 140.51C270.946 140.997 270.43 141.395 270.236 142.109C271.319 141.972 272.053 141.215 273.194 141.209C274.152 141.203 274.352 141.684 275.363 141.063C275.488 141.824 275.612 142.585 275.737 143.346C277.138 143.016 276.218 141.971 276.321 141.029C277.46 141.372 278.424 140.979 277.975 142.617C277.629 143.88 276.052 144.502 274.866 144.118ZM272.897 158.186C272.409 159.559 268.183 158.775 267.183 158.629C265.892 158.442 264.415 158.146 263.226 157.999C263.084 157.808 262.912 157.647 262.713 157.514C262.563 157.723 262.375 157.871 262.146 157.957C261.599 158.077 261.598 158.64 260.881 158.516C260.847 159.35 261.426 158.876 261.87 159.179C260.752 159.928 261.263 159.065 260.636 159.079C260.481 158.858 260.264 158.772 259.986 158.819C259.633 158.911 259.307 159.062 259.009 159.273C258.729 159.569 258.49 159.584 258.29 159.319C258.099 159.127 257.866 159.009 257.591 158.964C256.489 159.143 256.181 159.632 254.94 159.552C253.168 159.438 251.25 159.905 249.505 159.659C248.424 159.507 246.617 157.807 246.126 159.464C245.378 158.236 244.187 157.401 243.472 156.146C246.806 155.953 250.139 155.724 253.477 155.603C256.399 155.498 259.595 155.827 262.325 155.689C264.883 155.56 267.592 155.277 270.203 155.044C272.972 154.797 273.888 155.404 272.897 158.186ZM185.909 158.389C187.12 158.724 188.273 157.964 189.447 158.204C189.835 158.283 190.639 158.99 190.816 159.004C191.139 159.03 192.089 158.336 192.497 158.243C195.076 157.656 198.2 157.719 200.779 158.079C202.145 158.27 202.355 157.645 203.548 157.341C204.787 157.025 206.549 157.268 207.854 157.181C210.925 156.976 213.995 157.122 217.045 156.897C220.176 156.667 223.292 156.542 226.424 156.381C228.558 156.271 233.686 155.054 235.455 156.638C236.914 157.944 235.035 160.212 233.576 160.73C232.485 161.116 231.962 160.302 231.152 160.38C230.23 160.468 230.552 161.557 229.729 160.547C229.218 161.552 226.012 161.123 225.093 161.19C223.091 161.334 221.397 161.736 220.034 159.869C220.127 160.407 220.219 160.946 220.311 161.484C218.504 160.519 216.565 160.828 214.996 161.165C214.219 161.331 211.834 162.483 210.993 161.986C210.414 161.645 211.434 161.06 210.457 160.769C209.945 160.616 209.062 161.466 208.436 161.423C206.705 161.304 207.196 160.14 205.495 161.622C204.919 161.123 204.727 160.276 204.803 159.55C203.568 160.604 203.671 162.36 201.463 162.038C200.639 161.919 200.488 161.079 200.059 160.924C199.145 160.594 199.041 161.188 198.249 161.657C197.95 161.835 197.586 162.119 197.234 162.155C196.511 162.227 196.396 161.895 196.297 161.906C195.816 161.959 195.21 162.204 194.639 162.029C194.127 161.872 193.977 160.968 193.074 161.179C192.21 161.382 192.203 161.969 192.36 162.847C191.508 162.759 190.993 162.284 190.355 161.77C189.712 163.271 188.358 162.028 187.608 163.294C186.633 162.129 186.007 162.45 184.796 161.312C184.855 161.787 184.915 162.261 184.974 162.736C184.029 162.554 183.609 161.888 182.802 162.77C182.02 161.312 179.648 163.389 178.43 161.981C177.886 163.764 174.293 163.338 172.776 163.368C171.431 163.396 170.435 163.286 169.121 163.598C167.96 163.874 166.35 164.16 165.258 164.034C164.545 163.951 163.765 163.821 162.875 163.917C161.594 164.056 160.487 164.72 159.159 164.406C157.16 163.933 155.934 161.307 158.161 160.154C159.685 159.365 162.43 159.657 164.107 159.511C166.886 159.27 170.001 158.764 172.784 158.994C174.955 159.173 176.933 158.655 179.148 158.437C180.816 158.272 183.549 157.975 184.636 159.628C185.053 159.146 185.01 158.14 185.909 158.389ZM155.485 181.01C155.186 179.523 167.892 178.705 169.153 178.608C171.801 178.404 174.456 178.258 177.11 178.191C179.292 178.135 181.328 178.552 183.51 178.217C185.549 177.904 188.008 177.263 189.782 178.706C190.043 176.733 197.692 177.694 199.147 177.7C205.481 177.722 211.542 177.737 217.669 177.345C221.171 177.121 224.889 176.819 228.391 176.994C229.971 177.074 231.243 177.494 232.813 177.129C233.838 176.891 234.942 176.395 235.922 177.096C237.069 177.917 237.559 180.703 236.769 181.865C236.194 182.713 235.684 182.619 234.765 182.472C233.352 182.247 232.302 181.92 230.861 182.495C231.094 182.401 229.896 182.669 229.995 182.661C228.363 182.783 226.124 183.923 224.717 182.609C225.281 182.708 226.1 181.702 225.39 181.619C224.856 181.557 224.518 182.129 224.101 182.321C222.677 182.976 221.948 182.771 221.098 181.397C219.383 182.881 219.198 182.47 218.445 180.642C217.865 181.088 217.741 182.145 217.285 182.491C217.217 182.543 217.497 183.184 217.168 183.158C216.862 183.133 216.762 182.632 216.527 182.592C216.377 182.567 216.299 182.128 216.155 182.101C215.999 182.072 215.839 182.352 215.663 182.344C215.192 182.322 213.844 183.325 214.327 181.917C213.613 182.826 213.306 182.247 213.048 181.42C212.224 182.047 211.4 182.674 210.575 183.3C210.191 182.234 209.531 182.525 208.701 182.897C208.952 182.157 208.795 181.456 208.167 181.971C207.804 182.269 207.56 183.215 207.188 183.617C205.683 182.092 205.135 182.51 203.056 182.709C202.262 182.784 201.275 182.931 200.566 182.451C199.943 182.03 199.59 180.483 198.524 181.733C198.762 181.455 198.389 183.59 198.324 183.928C197.853 183.612 197.454 183.222 197.125 182.76C196.512 183.974 194.901 182.884 193.581 183.132C191.503 183.523 189.36 184.182 187.525 182.635C187.395 183.134 185.891 183.77 185.889 183.79C185.978 182.905 186.536 183.216 185.397 183.049C185.187 183.018 184.95 183.395 184.752 183.436C184.073 183.576 183.279 183.443 182.595 183.424C179.748 183.342 177.142 183.973 174.33 184.202C173.383 184.278 172.258 184.429 171.369 184.072C170.452 183.704 170.477 183.286 169.55 183.523C169.843 183.448 168.97 184.365 169.018 184.331C168.893 184.421 168.373 183.974 168.188 184.007C168.134 184.203 168.08 184.398 168.026 184.594C167.803 184.566 167.579 184.539 167.356 184.511C166.744 184.593 166.193 183.975 165.619 183.954C165.724 183.957 164.069 184.574 164.144 184.611C162.988 184.035 163.32 184.202 161.854 184.553C160.468 184.885 159.088 184.807 157.666 185.014C153.529 185.615 155.994 183.542 155.485 181.01ZM151.832 201.69C151.054 200.587 153.123 200.205 153.784 200.108C154.871 199.947 156.314 200.266 157.038 200.094C158.141 199.831 159.206 199.205 160.448 199.035C162.015 198.821 163.595 198.786 165.168 198.652C165.693 198.607 166.342 198.426 166.852 198.457C167.611 198.502 167.927 198.904 168.54 198.907C169.585 198.912 170.874 198.253 171.944 198.132C173.315 197.976 174.7 197.903 176.077 197.835C178.98 197.691 181.852 197.751 184.753 197.748C186.076 197.746 189.6 196.373 190.259 197.912C191.177 196.746 193.53 196.905 194.841 196.871C197.151 196.811 199.438 196.588 201.746 196.481C203.723 196.389 205.931 196.812 207.872 196.516C208.942 196.353 209.296 196.01 210.509 196.165C211.41 196.279 212.784 195.803 213.558 196.014C213.518 196.003 214.523 196.626 214.21 196.646C214.555 196.623 214.535 196.865 214.916 196.757C215.416 196.616 215.186 195.987 216.223 195.764C217.84 195.415 219.997 195.818 221.677 195.729C223.307 195.642 224.935 195.605 226.567 195.612C227.318 195.615 228.247 195.436 228.977 195.583C229.335 195.654 230.096 196.122 230.4 196.075C231.26 195.94 231.698 195.343 232.86 195.38C234.178 195.422 235.364 195.404 236.674 195.303C237.943 195.206 238.147 195.025 238.775 196.081C239.399 197.128 239.57 198.491 238.423 199.203C239.169 199.154 240.085 200.152 239.207 200.704C238.664 201.046 237.576 200.275 236.927 200.331C236.126 200.4 235.498 200.823 234.627 200.849C233.711 200.877 232.781 201.108 231.878 201.125C230.938 201.143 230.226 200.723 229.334 200.902C228.549 201.06 228.466 201.703 227.521 201.138C227.051 200.857 226.972 199.816 226.331 199.807C225.472 199.793 225.814 200.903 225.32 201.417C225.188 199.83 223.963 202.456 223.476 200.53C223.027 201.169 221.365 202.064 220.559 201.55C219.825 201.082 220.069 200.022 219.763 199.258C219.254 200.631 217.889 202.054 218.012 199.556C217.349 200.373 215.556 200.244 216.006 201.672C215.465 201.662 215.338 200.891 214.883 200.832C214.49 200.782 214.178 201.084 214.118 201.079C214.333 201.097 213.475 201.383 213.462 201.386C214.043 201.267 211.786 201.066 212.17 201.07C211.646 201.065 211.005 201.494 210.393 201.493C209.835 201.491 209.28 201.272 208.73 201.209C207.302 201.046 207.599 201.359 206.703 201.808C206.371 201.974 206.287 202.255 205.816 202.22C205.468 202.194 205.338 201.74 205.299 201.736C204.809 201.687 205.171 201.523 204.411 201.599C204.324 201.749 204.237 201.898 204.15 202.048C203.876 202.399 203.52 202.487 203.083 202.312C201.959 202.553 198.23 203.598 198.595 201.663C198.024 201.942 197.453 202.221 196.882 202.501C196.637 200.94 193.533 203.009 192.84 203.113C191.95 203.247 191.868 202.906 191.027 202.724C190.875 202.691 190.571 203.191 190.216 203.119C189.294 202.934 189.129 202.842 188.971 201.84C188.313 203.07 187.766 202.52 186.573 202.722C186.309 202.767 186.141 203.287 185.761 203.197C185.488 203.132 185.481 202.633 185.293 202.569C185.123 202.511 185.149 202.116 184.899 202.061C184.613 201.996 183.636 202.796 183.356 202.92C182.725 203.198 181.688 203.659 181.071 203.521C180.309 203.351 180.648 202.785 179.571 202.849C177.871 202.949 177.163 204.395 176.105 202.116C175.628 203.029 175.689 203.277 174.922 203.578C174.356 203.8 172.922 203.568 172.176 203.54C168.992 203.423 165.861 204.508 162.704 204.224C161.316 204.099 160.145 203.821 158.744 204.048C157.273 204.287 155.833 204.638 154.34 204.78C153.581 204.851 151.994 205.07 151.621 204.099C151.294 203.244 152.516 202.662 151.832 201.69ZM158.077 236.724C153.946 239.487 150.526 243.26 146.733 246.455C142.931 249.659 139.914 253.219 136.494 256.767C133.333 260.045 130.428 263.148 126.606 265.626C124.188 267.194 122.03 269.124 119.546 270.603C117.685 271.71 114.866 273.167 115.773 269.78C116.704 266.308 118.422 262.8 119.913 259.558C122.034 254.95 124.171 250.384 126.466 245.863C127.328 244.165 127.811 242.474 129.178 241.121C130.666 239.648 131.708 237.726 133.338 236.334C140.193 230.482 150.523 235.003 158.077 236.724ZM171.033 238.708C169.159 239.69 167.062 239.934 165.077 240.583C163.385 241.136 161.812 242.12 159.992 242.194C161.649 240.949 163.071 239.259 164.939 238.315C167.04 237.253 168.946 238.026 171.033 238.708ZM253.267 246.893C246.376 244.567 239.96 241.141 233.247 238.384C232.089 237.907 223.027 234.923 223.211 233.503C229.561 232.339 236.101 230.343 242.466 232.52C248.257 234.5 252.967 239.249 257.45 243.225C258.62 244.262 265.853 248.985 265.206 250.49C264.757 251.533 261.272 251.248 260.449 251.034C259.386 250.758 258.774 250.112 257.94 249.403C256.545 248.218 255.003 247.478 253.267 246.893ZM240.545 208.044C241.592 207.081 242.219 205.619 243.218 204.73C244.503 203.588 246.576 204.145 247.98 204.738C252.194 206.519 255.796 209.512 259.984 211.37C264.626 213.429 268.643 216.181 272.829 219.017C276.656 221.609 280.793 223.755 284.699 226.228C288.679 228.749 293.134 230.388 297.169 232.82C301.275 235.295 305.365 237.779 309.311 240.507C316.347 245.37 323.673 250.364 328.878 257.279C331.553 260.833 334.058 264.864 336.021 268.855C337.806 272.483 339.742 277.519 337.429 281.293C335.208 284.918 331.422 287.772 328.218 290.477C327.004 291.501 325.85 292.745 324.277 293.189C322.364 293.728 320.132 293.579 318.165 293.739C307.644 294.592 297.844 293.786 287.477 291.905C277.48 290.091 267.442 289.075 257.369 287.815C251.687 287.103 246.005 286.275 240.4 285.09C238.004 284.584 235.565 284 233.221 283.31C231.173 282.707 229.451 281.381 227.346 280.855C218.41 278.624 208.187 277.771 199.341 274.018C207.169 270.764 215.488 268.799 223.511 266.096C231.955 263.251 240.203 260.864 249.103 260.055C253.683 259.639 257.782 258.469 262.188 257.245C266.386 256.079 270.77 255.721 275.082 255.198C277 254.965 282.473 255.314 283.109 252.807C284.055 249.075 278.677 248.644 276.385 248.978C273.133 249.452 270.451 250.264 267.962 247.596C265.421 244.872 262.952 242.082 260.364 239.392C255.567 234.405 250.622 228.636 243.84 226.398C235.567 223.668 225.974 226.259 217.718 227.812C209 229.452 200.295 231.021 191.739 233.405C188.196 234.391 183.626 236.566 179.949 236.217C176.325 235.872 172.221 235.279 168.719 234.234C167.134 233.761 165.832 232.885 164.414 232.068C162.57 231.005 160.55 230.324 158.593 229.498C154.637 227.828 150.779 226.29 146.511 225.634C142.916 225.081 139.098 224.753 135.615 226.013C132.197 227.249 129.168 229.767 126.784 232.456C124.193 235.378 122.053 238.651 119.93 241.916C118.911 243.482 117.667 244.85 116.611 246.381C115.725 247.668 115.207 249.096 114.27 250.347C112.171 253.143 110.746 256.721 109.474 259.975C108.061 263.588 106.491 267.886 106.828 271.818C106.956 273.303 107.089 275.272 107.664 276.649C108.395 278.402 109.437 278.357 110.94 279.018C113.522 280.154 114.245 283.293 117.582 282.681C120.711 282.107 123.425 279.528 125.708 277.472C128.684 274.794 131.532 271.97 134.38 269.156C137.302 266.268 140.181 263.065 142.505 259.668C143.42 258.33 144.134 256.82 145.215 255.602C146.592 254.05 148.138 253.864 150.009 253.246C166.361 247.843 182.793 242.632 199.656 239.064C203.696 238.209 207.769 237.107 211.738 235.969C215.947 234.762 218.127 236.038 221.601 238.334C228.859 243.133 237.437 246.513 245.519 249.644C248.064 250.63 252.115 250.692 254.104 252.637C242.313 254.434 231.076 257.892 219.703 261.337C214.096 263.034 208.424 264.506 202.796 266.13C197.165 267.754 191.749 269.859 186.195 271.69C180.669 273.512 174.828 274.256 169.248 275.937C163.551 277.653 157.879 278.833 152.031 279.876C146.127 280.93 140.265 282.145 134.34 283.088C131.628 283.52 128.916 283.968 126.233 284.562C123.609 285.144 121.073 286.536 118.435 286.858C106.655 288.3 95.1052 291.511 83.3707 293.326C74.6092 294.682 59.3661 296.572 53.6845 287.782C47.9712 278.942 54.9806 268.63 61.2347 262.309C65.1215 258.381 69.4889 254.923 74.071 251.847C78.9752 248.556 83.6937 245.002 88.5988 241.715C99.6991 234.276 111.736 228.21 123.662 222.233C129.386 219.364 134.916 216.287 140.485 213.139C143.249 211.576 144.778 214.097 146.963 215.811C148.681 217.16 151.836 220.483 154.24 218.946C154.333 219.499 154.425 220.053 154.518 220.607C155.222 220.285 155.927 219.965 156.631 219.644C157.104 220.884 157.048 221.654 158.37 222.306C159.181 222.706 160.913 223.188 161.687 222.483C161.844 222.973 162.002 223.462 162.16 223.952C162.836 223.9 162.967 221.966 163.095 221.513C164.253 223.205 165.857 224.62 167.894 225.099C167.904 224.988 167.563 223.597 167.577 223.589C168.222 223.194 169.035 224.884 169.376 225.246C170.509 226.445 171.185 226.259 172.437 225.291C172.528 225.39 172.951 226.495 173.013 226.475C173.284 226.389 173.798 225.41 173.855 225.321C173.776 226.609 176.264 226.868 177.142 226.592C176.945 226.214 176.748 225.837 176.551 225.46C179.611 225.051 180.812 228.302 183.749 228.137C185.92 228.014 184.179 227.54 185.408 226.61C186.481 225.797 186.672 227.575 186.778 227.518C186.983 227.304 187.141 227.057 187.254 226.779C187.651 228.301 190.814 229.666 190.487 227.164C191.732 227.661 192.615 228.487 193.992 228.662C195.666 228.874 197.453 228.519 199.123 228.38C202.721 228.081 206.113 227.347 209.356 225.698C211.279 224.721 213.325 223.835 215.133 222.656C216.645 221.669 219.515 218.673 221.529 219.963C221.013 218.442 223.441 219.851 223.519 217.892C223.909 218.186 224.299 218.479 224.689 218.774C224.923 218.261 224.857 217.453 225.171 217.006C225.601 216.392 225.811 216.753 226.177 216.408C226.588 216.022 226.946 214.987 227.438 214.693C227.945 214.39 228.542 214.751 229.087 214.486C229.918 214.082 233.491 210.143 232.886 213.519C234.423 212.997 233.238 212.519 233.43 211.495C233.815 209.444 234.753 210.921 235.688 211.099C237.218 211.393 237.187 210.127 238.04 209.208C238.819 208.368 240.284 207.993 239.78 206.534C240.356 206.845 240.478 207.453 240.545 208.044ZM148.306 164.225C147.101 165.568 146.198 164.994 144.858 164.797C144.714 164.317 144.469 164.25 144.123 164.597C143.726 164.826 143.299 164.976 142.842 165.048C141.743 165.319 140.601 165.204 139.526 165.614C139.557 165.254 139.935 164.614 139.693 164.248C138.562 165.03 137.861 165.527 136.473 165.542C135.348 165.554 133.374 164.695 132.439 165.722C132.41 165.322 132.381 164.923 132.353 164.523C131.896 164.751 131.498 165.055 131.159 165.438C131.095 164.845 131.06 164.397 130.668 163.918C129.924 165.447 129.11 165.483 127.667 164.899C127.869 164.981 126.222 164.015 126.284 164.283C125.764 162.088 133.986 162.269 134.849 162.182C137.005 161.965 139.161 161.838 141.32 161.639C143.367 161.451 144.896 161.132 146.313 162.84C145.681 160.373 151.656 160.495 148.306 164.225ZM54.0302 125.958C54.2567 129.689 55.087 133.654 53.6365 137.244C52.4705 140.13 50.1443 143.39 47.6383 145.273C42.5071 149.13 38.1583 144.411 37.4439 139.225C36.6996 133.815 38.1751 127.206 42.8328 123.871C45.6161 121.878 48.311 122.017 51.5151 122.672C52.2675 122.826 53.4893 122.766 53.9196 123.514C54.0206 123.689 53.93 125.954 54.0302 125.958ZM122.178 175.662C121.292 176.109 120.365 176.371 119.583 176.979C119.312 177.191 119.219 177.673 118.931 177.85C118.407 178.175 117.658 177.96 117.112 178.227C116.207 178.669 115.559 179.301 114.485 179.709C112.889 180.313 111.489 181.143 109.981 181.929C107.468 183.24 104.77 184.365 102.143 185.431C100.816 185.97 97.1483 187.02 97.2751 188.961C96.9784 189.041 96.6753 188.393 96.0556 188.444C95.2054 188.515 94.0819 189.498 93.199 189.74C91.5474 190.192 90.269 190.232 90.269 192.338C89.7435 191.981 89.6099 191.107 88.9104 190.991C88.1231 190.861 87.792 191.71 87.1623 191.974C86.4207 192.285 85.4984 191.987 84.7641 192.318C84.4429 192.658 84.086 192.954 83.6932 193.207C83.2937 193.253 82.8959 193.241 82.5004 193.17C80.9412 193.501 79.5066 194.087 77.9437 194.392C76.4207 194.689 75.3774 194.797 76.018 196.598C74.3885 196.917 73.9908 195.188 72.1525 195.821C69.8993 196.595 67.7933 197.154 65.4413 197.627C64.2417 197.868 62.9883 198.405 61.7801 198.532C60.9181 198.622 60.1135 198.313 59.2646 198.409C58.2417 198.524 57.4195 198.998 56.3608 199.016C55.3565 199.033 54.3024 198.853 53.3162 198.676C53.4557 199.073 53.6302 199.454 53.8394 199.819C53.1577 199.676 52.8428 198.856 52.2648 198.735C51.6582 198.608 51.1146 199.234 50.6095 199.095C50.3944 199.036 50.5375 198.372 50.1529 198.246C49.8018 198.131 49.6541 198.266 49.3062 198.212C49.1903 198.194 47.7357 198.115 47.5037 198.238C47.0988 198.453 47.5087 198.855 47.4281 198.915C46.06 199.927 46.0433 199.381 45.4335 198.323C44.5379 196.771 43.458 197.75 41.8303 197.479C40.0161 197.176 38.5868 197.976 36.8016 197.862C34.8759 197.74 32.6127 196.299 30.9098 195.457C27.2332 193.64 23.6477 191.92 20.5601 189.168C14.5238 183.787 9.61326 177.171 6.71794 169.596C3.60704 161.459 3.01755 152.972 3.26724 144.338C3.41746 139.146 3.83304 133.957 4.65144 128.826C5.21484 125.296 5.33285 119.023 9.31247 117.416C9.99651 125.68 7.83772 134.102 9.19922 142.313C9.60919 144.787 10.609 148.082 12.5012 149.914C15.3025 152.625 15.958 148.706 16.2112 146.541C16.6828 142.519 17.5589 138.521 18.1795 134.518C18.7992 130.518 19.2373 126.473 20.0989 122.515C20.4133 121.072 22.9474 110.503 24.8074 111.003C24.431 118.692 23.4317 126.248 23.3922 133.965C23.3768 137.061 23.0996 140.33 23.5463 143.405C23.7764 144.987 25.2174 149.631 27.6958 149.243C29.9893 148.885 27.4679 145.614 27.2536 144.353C26.6865 141.015 27.4095 136.861 27.9381 133.547C28.9393 127.276 31.1721 120.853 34.8215 115.612C38.0904 110.92 43.1232 106.452 49.1866 107.28C51.7769 107.634 53.7982 108.277 55.0997 110.643C56.1212 112.499 60.1443 114.609 57.8127 116.933C55.6904 119.049 52.2576 117.355 49.8983 116.85C47.0095 116.233 43.9137 116.976 41.4978 118.669C37.3529 121.572 34.9909 126.764 34.2199 131.632C33.1807 138.197 35.9585 155.38 46.1896 151.529C52.9864 148.971 58.1058 139.767 57.535 132.721C57.3063 129.901 56.2037 124.547 60.1058 123.785C65.1052 122.81 65.8114 128.321 65.3049 131.902C64.5693 137.111 61.8159 141.955 58.6662 146.074C55.921 149.663 52.7282 151.908 49.4249 154.873C48.4469 155.75 45.9522 157.724 46.3712 159.356C46.8306 161.145 50.7509 161.654 52.3205 161.948C60.0863 163.401 68.8438 162.064 76.5965 161.049C92.5304 158.962 108.255 153.824 121.32 144.375C121.848 150.221 122.513 156.048 122.758 161.915C122.877 164.763 122.907 167.652 123.233 170.485C123.434 172.227 124.158 174.661 122.178 175.662ZM77.9967 196.032C77.3711 196.359 78.0474 194.38 77.8735 195.035C78.808 195.37 78.8493 195.702 77.9967 196.032ZM144.095 125.283C145.088 124.189 147.801 121.585 148.662 124.056C148.982 123.003 149.024 121.443 150.261 122.865C150.753 121.118 156.185 121.281 157.53 121.204C161.838 120.958 166.164 120.826 170.456 120.398C179.278 119.519 188.252 119.973 197.106 119.944C199.023 119.937 200.935 119.834 202.838 120.112C204.675 120.38 206.605 121.133 208.477 120.858C210.141 120.613 211.232 120.154 212.945 120.35C214.995 120.585 216.985 120.753 219.053 120.745C228.2 120.711 237.343 121.082 246.491 121.096C248.274 121.099 250.411 120.751 252.084 121.508C252.703 121.789 253.381 122.723 253.854 122.826C254.396 122.943 254.074 122.097 254.8 122.479C255.773 122.99 255.02 124.564 254.377 124.813C254.762 124.664 253.683 124.517 253.791 124.511C253.279 124.538 252.842 124.931 252.292 124.907C251.454 124.87 250.752 124.359 250.077 123.909C250.066 124.093 250.437 125.318 250.013 125.379C249.649 125.433 249.307 124.225 249.271 123.945C247.224 125.75 245.055 124.744 242.516 124.972C240.714 125.135 236.958 126.336 235.701 124.456C235.649 124.856 235.488 125.206 235.22 125.506C234.861 126.053 234.551 126.007 234.288 125.365C234.2 125.369 233.324 125.559 233.307 125.558C232.692 125.509 231.893 125.288 231.266 125.235C230.297 125.152 230.475 125.858 229.703 125.869C229.281 125.875 228.206 125.266 227.47 125.228C226.196 125.161 224.895 125.702 223.639 125.538C222.774 125.426 221.992 124.721 221.143 124.694C220.085 124.659 219.742 125.466 218.904 124.333C218.732 124.286 218.626 124.952 218.558 124.964C218.574 124.961 217.76 125.082 217.664 125.119C217.497 125.183 216.846 125.481 216.648 125.484C216.22 125.492 215.988 125.186 215.535 125.179C214.784 125.166 212.389 125.827 212.456 124.439C209.779 125.431 207.495 125.044 204.747 125.279C203.486 125.387 202.694 125.218 201.495 124.986C199.993 124.696 198.995 125.061 197.497 125.135C196.057 125.205 195.603 124.596 194.388 124.046C193.909 123.829 193.592 123.543 193.004 123.664C192.669 123.733 192.908 124.297 192.808 124.335C192.292 124.535 191.931 124.324 191.223 124.372C189.916 124.461 189.395 125.554 188.052 124.528C188.498 124.474 188.945 124.419 189.392 124.365C188.107 123.82 186.411 123.542 186.722 125.526C185.626 125.372 186.575 124.626 186.036 124.359C185.497 124.092 184.894 124.538 184.215 124.759C182.423 125.34 180.929 125.052 179.061 124.947C176.938 124.829 171.972 126.561 170.451 124.312C170.406 124.786 169.897 126.106 169.22 126.044C168.999 126.024 169.614 124.622 169.684 124.474C169.335 125.217 167.744 125.357 166.96 125.742C167.048 125.343 167.135 124.945 167.223 124.546C166.495 125.321 166.141 124.848 165.285 125.107C164.91 125.221 164.368 125.993 164.048 126.04C163.675 125.607 163.206 125.421 162.641 125.481C162.265 125.387 161.89 125.369 161.514 125.426C160.011 125.535 158.64 126.371 157.144 125.802C155.849 125.309 155.349 124.04 154.577 126.058C154.373 125.699 154.17 125.341 153.967 124.982C153.717 125.371 153.466 125.761 153.215 126.15C152.236 125.508 152.176 125.137 151.049 125.372C150.784 125.478 150.513 125.463 150.235 125.328C150.169 125.526 150.102 125.723 150.036 125.921C150.01 126.417 149.862 126.581 149.594 126.412C149.368 126.331 149.165 126.209 148.983 126.043C148.237 126.1 147.285 126.296 146.484 126.188C146.175 126.147 144.239 125.125 144.095 125.283ZM166.916 111.927C167.004 112.062 167.092 112.197 167.18 112.332C165.969 112.971 165.684 112.604 165.559 111.32C166.151 111.332 166.252 112.372 166.916 111.927ZM167.666 111.174C168.249 111.431 168.918 111.936 169.467 111.26C169.837 112.334 167.091 113.8 167.666 111.174ZM171.432 111.649C172.656 112.476 169.72 111.811 169.724 111.812C170.252 111.325 170.821 111.27 171.432 111.649ZM181.959 107.035C182.379 109.154 183.537 109.093 185.406 108.108C188.131 106.672 188.591 104.321 188.781 101.513C188.964 98.8201 189.293 97.7777 192.07 98.3399C194.007 98.7322 195.647 98.4024 197.601 98.3485C199.685 98.291 200.42 98.6095 200.588 100.755C200.756 102.903 201.138 104.534 202.697 106.169C204.282 107.831 206.396 108.824 208.455 109.754C209.514 110.231 210.509 110.745 211.68 110.849C212.134 110.889 214.498 110.59 214.547 111.338C214.584 111.901 211.311 113.486 210.964 113.675C209.446 114.5 207.933 115.241 206.275 115.741C202.46 116.892 198.416 116.96 194.465 116.89C188.095 116.778 179.292 114.084 175.483 108.432C177.642 107.967 179.801 107.501 181.959 107.035ZM181.388 88.6932C180.38 87.8475 179.727 86.5696 178.89 85.568C178.468 85.0629 178.159 84.902 177.757 84.6493C177.334 84.3829 177.096 84.7598 176.742 84.1338C175.83 82.5165 178.645 80.2407 175.659 79.6182C174.65 79.4071 172.219 80.2076 171.924 78.7602C171.507 76.714 175.413 76.5804 176.331 75.5417C178.159 73.4769 176.918 69.9765 178.031 67.5946C179.085 65.3382 181.804 64.9373 183.95 64.2592C186.941 63.3151 189.968 62.7674 193.004 62.0118C195.127 61.4836 198.655 59.3618 200.624 61.2368C197.585 61.9113 199.352 62.9704 201.377 63.5679C203.671 64.2456 206.102 64.5097 208.479 64.6986C210.926 64.8925 213.419 64.9296 215.837 64.4417C218.073 63.9906 220.57 62.0472 222.914 62.545C221.614 64.8069 217.739 66.0422 215.384 66.6347C214.185 66.9364 213.416 66.8422 213.578 68.338C213.733 69.7876 214.994 71.2413 215.279 72.7516C215.655 74.7503 215.326 76.5872 214.615 78.4667C213.915 80.3163 213.752 80.5578 214.363 82.3249C215.316 85.0765 213.268 88.1179 211.375 90.1161C203.718 98.1959 189.066 95.1354 181.388 88.6932ZM200.843 40.4041C200.874 40.4865 200.848 40.4553 200.843 40.4041V40.4041ZM203.228 60.7946C202.91 61.0315 201.082 61.5289 201.159 60.8145C201.26 59.8569 202.908 60.203 203.228 60.7946ZM207.395 41.4541C206.966 41.1343 205.764 41.2657 206.643 40.0534C206.929 40.5866 207.162 41.0202 207.395 41.4541ZM178.558 33.7911C179.105 32.3705 179.711 31.0487 179.957 29.5361C180.109 28.6043 179.807 27.5402 181.11 27.3938C179.449 26.6699 179.433 23.8124 179.334 22.3311C179.2 20.2912 178.555 17.5598 179.452 15.6611C180.372 13.7107 181.614 13.743 181.988 16.0658C182.135 16.9753 181.574 17.2695 181.468 17.9029C181.26 19.1559 181.675 18.8812 182.483 17.9266C182.817 18.8968 182.945 20.3547 184.303 20.2931C184.212 20.0307 183.692 19.4519 183.866 19.126C184.133 18.6254 185.437 19.3902 185.602 19.506C186.794 20.3391 187.052 21.0996 186.203 22.1503C187.379 22.2772 186.392 23.3069 187.151 23.575C188.309 23.9846 187.532 22.0448 187.407 21.7037C188.112 21.9787 188.348 22.293 188.795 22.8498C189.057 23.2339 189.295 23.633 189.51 24.0457C189.751 24.7995 190.244 24.988 190.993 24.6124C192.493 25.0831 194.564 25.0092 195.909 25.8323C196.523 26.2079 196.744 27.0301 197.258 27.3422C197.835 27.6937 198.609 27.5343 199.229 27.7549C199.002 28.2704 199.186 28.5495 199.779 28.5929C200.24 28.6351 200.687 28.7388 201.118 28.9042C201.441 28.6609 201.792 28.4684 202.171 28.3288C202.426 28.7778 202.787 28.8888 203.253 28.6627C204.636 28.9218 205.301 29.445 206.18 30.2274C206.969 30.9295 206.327 30.9866 207.192 30.9241C207.539 30.8992 208.148 30.3098 208.942 30.4249C209.4 30.5137 209.841 30.655 210.266 30.8475C210.725 31.2403 211.212 31.2897 211.728 30.9961C212.566 31.4052 212.648 32.1309 213.67 32.2301C214.799 32.3402 214.436 30.9318 215.211 32.9178C216.256 30.8122 216.639 34.1667 217.717 34.4376C218.834 34.7184 218.955 33.8124 219.911 34.8022C220.198 35.099 220.182 35.5891 220.504 35.9035C221.031 36.4181 221.744 36.3153 222.202 37.0174C221.947 36.6256 222.263 38.4063 222.257 38.3474C222.328 39.133 221.63 40.0131 223.061 39.9461C223.045 40.0285 222.358 41.0301 222.224 40.9169C222.191 40.8027 222.163 40.6867 222.141 40.5694C221.988 40.6356 221.92 41.5896 221.948 41.7581C222.069 41.7771 222.119 41.687 222.097 41.4877C221.862 42.2233 222.216 42.6908 221.764 43.3894C221.475 43.8356 220.684 44.1712 220.264 44.4467C219.25 45.1117 218.257 45.779 217.267 46.487C214.96 48.1377 212.377 50.1287 209.471 50.473C210.93 49.0401 219.326 43.6177 215.115 42.0612C214.334 41.7726 212.912 41.4994 212.095 41.4387C211.079 41.3635 210.029 41.9452 208.909 41.5819C207.556 41.1447 208.065 39.8736 207.24 39.4174C205.486 38.4503 205.9 40.7253 205.348 41.321C204.768 40.7126 204.892 40.4163 203.976 40.3615C203.047 40.3053 202.826 41.1647 201.741 40.6292C200.246 39.8917 201.037 38.4222 198.917 38.3878C198.952 38.0652 199.26 37.1638 198.855 36.9123C198.31 37.6195 198.732 38.4104 198.226 39.0913C197.973 39.4328 197.423 39.7051 197.021 39.8156C196.081 40.0738 195.948 40.5681 196.101 39.1529C195.404 40.4077 193.268 39.8917 191.997 39.7653C189.932 39.5601 187.737 39.1692 185.756 38.5069C183.925 37.894 182.946 36.8412 181.436 35.8831C180.865 35.5207 180.592 35.6593 179.774 35.4342C178.965 35.2122 178.178 34.7819 178.558 33.7911ZM182.917 11.572C183.229 11.3841 183.452 14.1875 183.075 14.7113C182.382 13.6168 181.156 12.0113 182.917 11.572ZM183.913 10.4537C184.916 9.54609 184.219 11.8903 184.035 12.2836C183.664 12.0454 183.292 11.8073 182.921 11.5691C183.394 11.2783 183.513 10.8157 183.913 10.4537ZM221.747 6.67574C231.012 8.62002 240.193 12.2542 247.623 18.235C254.392 23.6824 259.169 31.4115 261.848 39.6331C264.628 48.1667 263.694 57.6345 257.079 64.1659C253.595 67.606 248.994 69.6816 244.609 71.707C242.508 72.6773 240.344 73.4855 238.235 74.4336C236.72 75.1145 234.87 76.2035 233.141 76.015C234.023 75.0868 235.303 75.0678 236.37 74.5007C237.66 73.8144 238.713 72.4979 239.825 71.5575C240.929 70.6239 243.377 67.6839 245.073 68.3955C244.837 66.8291 246.622 66.102 247.426 65.0691C248.276 63.9765 248.337 62.6986 249.905 62.3412C248.221 61.0238 248.737 58.54 249.103 56.747C249.571 54.4539 249.788 52.3488 249.973 50.0154C250.306 45.8088 250.574 40.4498 248.25 36.752C247.495 35.5511 246.535 34.4475 245.862 33.2C245.051 31.6969 245.23 30.3741 245.23 28.7261C243.747 29.7227 243.435 27.691 242.808 26.7008C242.338 25.9578 241.72 25.5429 241.569 24.6079C241.459 23.9279 242.197 23.8129 241.792 23.0998C241.296 23.4745 241.098 24.0552 240.847 24.5943C240.389 24.4113 240.929 23.7734 240.666 23.5664C240.659 23.5605 239.775 23.1768 239.819 23.2321C239.25 22.5114 239.067 21.3155 238.789 20.4577C237.747 20.9853 237.942 20.9231 236.78 20.0416C236.575 19.8865 235.553 19.1739 235.456 18.9409C235.007 17.8516 235.795 18.4968 235.575 17.8208C234.942 15.8789 231.391 16.2461 231.11 13.3364C229.378 14.4357 228.718 12.8781 227.695 11.7702C226.645 10.6354 224.886 10.1989 224.98 8.39891C224.435 8.58537 223.89 8.77133 223.346 8.95683C223.629 7.29585 221.161 7.40163 220.268 6.55904C220.764 6.5652 221.257 6.60412 221.747 6.67574ZM223.159 109.552C224.017 108.784 223.757 109.806 224.309 109.689C224.782 109.589 224.875 109.232 225.328 109.123C227.195 108.672 229.986 109.238 231.949 109.141C234.222 109.029 238.12 109.501 239.204 112.161C239.856 113.763 238.86 113.218 237.763 113.099C236.912 113.007 236.155 113.179 235.313 113.17C234.897 113.235 234.482 113.228 234.069 113.151C233.867 113.018 233.748 112.831 233.711 112.59C232.54 112.413 231.295 113.106 229.998 113.14C228.266 113.187 226.727 112.855 225.412 111.685C224.889 112.465 224.533 112.852 223.592 112.939C223.567 112.941 222.648 112.571 222.506 112.534C222.318 112.485 221.842 112.88 221.479 112.768C222.123 111.742 222.216 110.394 223.159 109.552ZM341.422 118.81C341.727 117.747 341.983 116.67 342.262 115.6C346.536 120.465 350.276 126.979 351.959 133.219C353.053 137.274 354.754 144.622 349.542 146.713C345.296 148.417 342.928 142.31 341.854 139.302C339.482 132.662 339.482 125.566 341.422 118.81ZM150.193 42.5672C150.247 42.5558 147.426 44.1971 148.355 42.8684C148.728 42.3339 150.145 41.9583 150.773 41.9583L150.193 42.5672ZM147.478 43.2625C147.152 43.537 146.822 43.8084 146.489 44.0761C146.17 43.5715 145.85 43.0664 145.53 42.5617C146.16 42.2963 148.834 42.0969 147.478 43.2625ZM145.489 94.2874C144.899 93.8874 144.431 94.0998 144.253 94.7712C144.253 94.1034 144.601 92.5515 145.136 92.3707C145.481 92.2534 143.987 90.4862 144.407 90.0237C145.475 90.6352 144.836 91.221 145.148 92.0106C145.29 92.3666 145.714 92.7037 145.807 92.9773C145.964 93.4421 146.602 95.0393 145.489 94.2874ZM142.597 90.3104C141.992 90.4654 143.051 91.4633 143.05 91.9046C143.049 92.2384 142.648 92.4944 142.483 92.951C142.125 93.9399 142.741 94.6081 141.726 95.3628C141.726 93.1956 140.272 87.4529 143.067 86.397C141.703 85.3233 142.823 84.0839 143.892 85.3691C144.919 86.6044 144.265 89.8837 142.597 90.3104ZM141.141 81.7582C140.591 79.8103 138.938 79.129 137.048 79.2445C137.12 78.247 137.875 76.8092 138.421 78.6067C138.646 78.0753 138.801 77.3822 139.313 77.0302C140.175 79.7324 144.473 81.2255 141.797 84.1537C141.578 83.3555 141.366 82.5555 141.141 81.7582ZM136.147 79.3895C126.196 80.1111 112.225 82.1759 104.262 74.5482C99.0695 69.5747 99.3467 61.8297 103.543 56.304C105.937 53.1507 109.206 50.9305 112.489 48.8154C113.756 47.9987 114.829 47.46 116.22 46.9907C116.445 46.9663 116.657 47.0166 116.855 47.1416C116.933 46.8055 117.122 46.5572 117.423 46.3946C117.961 46.1074 118.726 46.0045 119.035 45.4079C118.705 46.5287 118.535 47.6825 118.414 48.8417C118.146 48.5296 117.878 48.2175 117.61 47.9053C117.387 50.0172 115.186 48.7389 113.873 49.0025C114.738 50.2003 115.357 50.6351 115.431 52.2179C114.787 51.0279 113.439 50.2455 112.186 49.8623C112.867 51.875 113.348 53.0696 112.663 55.2766C111.835 54.8041 111.779 53.6693 110.776 53.3975C110.511 54.7135 110.464 56.174 110.125 57.451C107.554 56.2786 107.805 59.4361 108.837 60.9985C109.386 61.8297 109.655 62.7919 110.145 63.5896C111.346 65.5471 110.433 62.6202 111.769 62.7588C111.469 64.8232 111.364 65.0288 112.875 66.5405C114.35 68.0146 115.114 70.0599 116.691 71.4447C117.148 70.8612 116.43 70.2506 116.367 69.692C117.834 69.938 118.521 71.4094 119.932 70.1061C120.547 71.3052 121.213 72.6257 122.686 72.8717C121.712 71.0202 124.557 72.276 125.286 72.5387C125.839 72.738 126.83 72.8966 127.044 72.9731C128.246 73.4071 127.422 72.6284 128.151 74.0513C129.222 73.7278 129.626 72.8395 130.907 73.5901C131.948 74.2008 131.951 75.2463 132.189 76.3177C132.437 75.6169 132.688 74.9165 132.962 74.2252C133.242 74.343 134.415 75.6336 134.286 75.6395C137.031 75.505 136.934 77.2092 136.147 79.3895ZM122.175 44.4544C122.726 44.0675 123.399 44.5826 124.018 44.4439C124.875 44.2528 125.361 43.5189 126.318 43.4401C126.052 44.2913 125.552 44.2116 125.129 44.8797C124.985 45.1076 125.06 45.6539 124.932 45.7853C123.86 46.8838 123.489 45.9873 122.394 45.1556C122.489 46.1586 122.682 46.4752 121.737 46.7443C120.882 46.9885 119.47 46.0902 119.039 45.4011C119.402 44.6736 121.515 44.9173 122.175 44.4544ZM129.003 42.8865C129.932 42.9753 128.813 45.7169 127.481 43.0578C127.983 42.9486 128.49 42.8915 129.003 42.8865ZM133.781 42.357C135.246 42.058 140.134 40.665 140.678 42.9459C140.776 42.8892 141.139 41.6014 141.308 41.7586C141.985 42.3882 142.061 43.2227 142.009 44.097C141.191 42.3928 141.482 43.8899 140.927 43.7731C140.783 43.7423 140.561 44.0127 140.195 43.9013C139.714 43.7545 139.37 42.7321 139.066 42.386C138.561 43.1067 137.935 44.0353 136.924 43.9728C136.208 43.9284 135.054 42.0852 135.981 44.1033C135.436 43.9234 134.806 43.5162 134.2 43.5977C133.521 43.6897 133.168 44.3597 132.531 44.468C131.12 44.7071 130.907 43.3495 129.991 42.612C131.255 42.5386 132.533 42.6111 133.781 42.357ZM142.646 42.3348C142.75 41.8673 144.032 41.6784 144.359 41.827C145.156 42.1889 144.861 42.6668 144.714 43.4618C144.123 43.1819 143.532 42.9024 142.94 42.6224C143.823 44.0439 142.224 44.2501 142.646 42.3348ZM390.864 125.595C390.76 122.189 390.66 118.723 389.797 115.407C389.193 113.086 387.708 108.924 384.9 108.522C380.665 107.914 378.32 116.284 377.133 119.157C376.895 115.774 377.103 112.174 375.825 108.963C374.803 106.39 372.218 103.954 369.992 106.843C368.012 109.414 367.631 113.21 367.11 116.304C366.434 120.313 366.028 124.353 365.535 128.386C363.601 124.648 363.263 120.369 361.734 116.484C360.291 112.818 358.021 109.317 355.834 106.056C354.049 103.392 351.876 100.888 349.078 99.26C346.643 97.843 342.385 96.31 340.064 98.6634C338.127 100.627 338.431 103.255 338.531 105.733C338.576 106.837 338.749 107.593 337.779 108.15C337.302 108.423 336.556 108.281 336.032 108.427C335.188 108.663 334.54 109.063 333.826 109.594C328.818 113.316 326.509 120.024 325.795 126.005C324.89 133.583 327.844 140.079 330.387 147.012C330.792 148.117 332.078 150.461 331.901 151.695C331.706 153.046 330.009 153.082 328.864 153.11C325.407 153.195 321.793 152.938 318.353 152.615C310.163 151.849 301.979 147.906 294.646 144.386C293.308 143.743 291.415 143.376 290.323 142.364C289.297 141.413 289.026 139.889 288.14 138.798C285.965 136.122 284.579 133.839 281.376 132.221C278.115 130.575 274.787 129.053 271.605 127.251C267.67 125.019 264.034 122.194 260.264 119.696C253.256 115.055 246.295 109.967 238.866 106.021C235.413 104.186 231.555 103.89 227.971 102.388C224.48 100.926 220.196 100.924 216.553 101.847C214.779 102.297 213.571 103.364 211.939 104.06C210.027 104.876 208.467 103.975 206.784 103.001C204.213 101.514 201.664 99.0892 205.326 97.4842C206.567 96.9392 208.124 96.7331 209.209 95.8769C210.365 94.9646 211.294 93.2812 212.234 92.1383C214.325 89.5974 215.574 86.6728 218.634 85.0928C222.018 83.3455 226.029 82.8699 229.637 81.7279C233.547 80.4912 237.375 79.0203 241.211 77.5761C248.124 74.9745 255.31 72.1654 260.277 66.4377C264.561 61.4968 266.428 55.1185 266.255 48.6406C265.902 35.3979 258.808 21.9578 248.63 13.678C236.149 3.52501 220.271 0.13941 204.506 0.316851C197.107 0.400385 188.277 1.36868 182.104 5.864C176.772 9.74678 175.885 16.5379 176.678 22.6681C176.999 25.156 178.1 28.4394 176.345 30.6315C175.363 31.8582 173.601 32.1617 172.278 32.9264C170.616 33.8872 169.15 34.8081 167.267 35.316C159.27 37.4759 150.847 36.7239 142.67 36.6043C129.049 36.405 115.088 40.0929 104.927 49.6906C96.7211 57.4406 94.2604 72.0549 104.268 79.6101C112.354 85.7138 125.036 85.0425 134.57 83.9779C137.526 83.6472 139.559 83.167 139.566 86.7843C139.573 90.7354 138.919 94.8649 139.927 98.7435C141.515 104.853 147.385 104.998 152.574 103.683C155.313 102.989 157.96 101.945 160.56 100.852C164.375 99.2486 167.871 96.8912 171.638 95.2908C174.191 94.2063 176.103 97.7139 178.368 95.2821C178.787 94.8328 178.864 94.1632 179.496 93.9331C180.485 93.573 182.144 94.8359 183.012 95.2355C184.311 95.8334 185.621 96.2733 186.14 97.7139C186.626 99.0611 186.413 101.204 185.948 102.533C184.937 105.423 182.215 104.851 179.731 104.658C175.397 104.321 171.092 103.606 166.76 103.305C162.873 103.036 159.234 104.197 155.881 106.114C148.84 110.14 143.079 116.543 136.974 121.809C133.832 124.518 130.794 127.446 127.377 129.805C125.891 130.832 124.282 131.775 122.991 133.05C121.71 134.315 121.569 135.465 121.131 137.149C120.35 140.146 116.474 141.611 114.052 143.192C110.626 145.428 106.993 147.006 103.152 148.378C95.0187 151.283 86.8207 153.312 78.317 154.811C74.1534 155.546 70.0248 156.028 65.8209 156.425C62.1969 156.766 58.3436 157.883 54.7241 156.991C55.7665 155.3 57.6139 154.285 59.0526 152.978C60.9072 151.293 62.4845 149.296 63.8884 147.228C66.6205 143.2 68.5371 138.878 68.977 133.992C69.3738 129.595 68.919 124.335 66.2658 120.62C65.3493 119.337 63.536 118.988 62.716 117.832C61.9002 116.683 62.2114 114.705 61.7647 113.366C60.6281 109.958 57.2546 105.736 54.2856 103.756C51.0648 101.609 46.3531 100.82 42.6326 101.939C35.7397 104.012 31.5055 111.379 28.3513 117.332C26.6285 113.707 29.5137 108.328 26.1478 105.359C23.3089 102.854 21.0557 107.706 20.1062 109.781C15.6491 119.525 14.6366 129.859 12.7693 140.285C12.0083 139.535 12.3983 137.609 12.4699 136.715C12.6031 135.049 12.5904 133.415 12.594 131.742C12.6031 127.516 13.3886 123.271 13.0285 119.049C12.8205 116.608 12.0423 111.462 8.49639 112.273C5.48922 112.961 3.60559 117.189 2.66072 119.775C1.29786 123.504 0.983206 127.195 1.06805 131.135C1.16187 135.487 0.332603 139.768 0.131697 144.115C-0.258791 152.557 0.126943 160.927 2.54937 169.075C6.51609 182.418 15.6368 193.503 27.8095 200.198C34.5162 203.887 41.9563 206.221 49.6057 206.723C53.7511 206.994 57.7529 206.501 61.863 206.072C65.9187 205.649 69.9958 205.454 74.0447 204.958C83.0613 203.851 91.8472 200.997 100.043 197.156C104.357 195.134 108.414 192.651 112.657 190.496C114.36 189.631 115.51 188.549 116.964 187.346C118.404 186.154 118.803 186.061 120.441 186.061C119.961 184.775 121.363 184.379 121.987 183.566C121.952 183.961 121.917 184.355 121.882 184.749C122.358 183.717 122.801 183.727 123.211 184.779C123.616 183.601 123.916 182.39 124.405 181.241C126.275 182.188 126.118 184.438 128.619 182.795C130.679 181.443 132.573 179.848 134.673 178.523C139.456 175.503 143.58 171.575 148.377 168.591C148.377 171.498 148.582 174.429 148.193 177.321C147.824 180.072 146.797 182.642 145.981 185.275C144.475 190.132 144.371 195.323 142.702 200.131C142.011 202.122 140.213 203.788 139.697 205.726C139.172 207.704 140.386 209.288 138.351 210.587C136.916 211.502 135.123 211.889 133.533 212.442C131.11 213.287 128.809 214.479 126.449 215.49C115.383 220.232 104.588 225.062 94.3347 231.438C84.6042 237.488 74.7251 243.737 65.7865 250.923C58.0288 257.159 50.1869 265.223 48.2983 275.396C46.4659 285.264 51.3484 295.856 61.1518 299.106C66.249 300.796 72.0116 300.586 77.3199 300.66C83.0318 300.739 89.0848 299.362 94.7007 298.366C100.631 297.314 106.461 295.668 112.409 294.728C118.115 293.827 123.349 291.812 128.963 290.571C134.942 289.249 141.074 288.531 147.086 287.342C149.793 286.806 152.444 286.016 155.158 285.52C158.129 284.978 161.133 284.774 164.075 284.055C169.782 282.661 175.246 280.412 180.978 279.115C183.555 278.531 186.093 277.75 188.671 277.204C191.044 276.702 192.893 275.368 195.272 276.464C197.193 277.349 198.726 278.867 200.545 279.924C202.904 281.295 205.391 282.524 207.85 283.704C212.792 286.075 217.916 287.714 223.083 289.494C228.51 291.364 233.84 293.496 239.463 294.732C245.227 295.998 251.107 296.35 256.911 297.352C268.797 299.402 280.583 300.322 292.648 300.397C298.747 300.435 304.845 299.712 310.929 299.798C316.316 299.873 320.999 301.087 325.924 298.224C333.794 293.649 342.923 286.756 342.729 276.746C342.553 267.679 337.115 259.016 332.013 251.865C325.818 243.18 316.985 237.065 308.328 231.074C299.101 224.69 288.738 220.279 279.041 214.706C274.081 211.856 269.507 208.79 264.122 206.764C261.551 205.798 259.044 204.677 256.503 203.636C254.459 202.799 251.508 202.336 249.758 200.947C248.666 200.08 248.561 198.767 248.273 197.478C247.634 194.626 246.631 191.921 245.659 189.17C243.782 183.858 242.534 178.448 241.727 172.877C240.958 167.566 239.25 162.043 240.134 156.646C245.951 162.272 251.927 167.68 257.878 173.157C260.108 175.209 262.297 177.305 264.539 179.345C266.221 180.876 268.326 183.151 270.672 183.606C273.668 184.187 272.574 180.872 274.631 180.359C275.888 180.045 279.68 183.24 280.675 183.871C286.975 187.871 293.952 190.405 300.882 193.128C308.148 195.983 315.621 198.519 323.441 199.238C330.664 199.903 338.049 199.05 345.019 197.082C358.9 193.163 369.114 183.865 376.61 171.812C385.152 158.078 391.367 141.99 390.864 125.595Z" fill="#2D3748"/>
<path fill-rule="evenodd" clip-rule="evenodd" d="M178.719 95.6545C178.717 95.6586 178.695 95.7047 178.695 95.7047C178.722 95.6863 178.73 95.6697 178.719 95.6545Z" fill="#2D3748"/>
<path fill-rule="evenodd" clip-rule="evenodd" d="M179.389 95.8321C179.337 95.3945 179.224 94.9664 179.052 94.5469C178.593 95.2754 178.182 95.5875 178.785 96.3589C178.986 96.1832 179.187 96.0079 179.389 95.8321Z" fill="#2D3748"/>
<path fill-rule="evenodd" clip-rule="evenodd" d="M211.397 199.951C211.911 199.404 211.012 199.198 210.671 199.19C210.705 199.777 210.414 201.184 211.216 201.455C211.024 200.925 211.084 200.423 211.397 199.951Z" fill="#2D3748"/>
<path fill-rule="evenodd" clip-rule="evenodd" d="M197.838 85.5063C196.955 87.2123 198.906 87.7415 200.036 86.9174C200.886 86.2977 201.389 84.7181 201.528 83.7047C201.98 80.4259 199.686 77.3047 198.541 74.3951C198.246 73.6431 197.841 71.0637 196.889 70.993C195.795 70.9115 195.714 73.287 195.7 73.9C195.658 75.7482 196.147 77.6309 196.721 79.3754C197.339 81.2563 198.87 83.514 197.838 85.5063Z" fill="#2D3748"/>
<path fill-rule="evenodd" clip-rule="evenodd" d="M202.04 78.6647C205.435 81.688 208.151 76.6524 207.914 73.6739C207.855 72.936 207.357 70.2148 205.957 71.2051C205.254 71.7025 205.853 73.3192 205.518 74.0291C203.894 77.4701 202.33 72.1324 201.236 71.7133C199.906 71.2028 199.772 72.9509 199.774 73.8855C199.777 75.7405 200.66 77.4361 202.04 78.6647Z" fill="#2D3748"/>
<path fill-rule="evenodd" clip-rule="evenodd" d="M189.714 79.1344C190.514 77.8751 191.497 76.1858 191.606 74.6769C191.775 72.3317 190.408 72.5274 189.283 74.1636C188.489 75.3197 187.893 77.2803 186.139 76.7928C183.973 76.1922 184.635 73.2803 183.423 71.8968C180.362 76.0082 186.155 84.738 189.714 79.1344Z" fill="#2D3748"/>
<path fill-rule="evenodd" clip-rule="evenodd" d="M194.302 91.7165C195.568 91.9902 198.869 91.8896 197.725 89.9507C196.283 87.5091 191.486 91.1077 194.302 91.7165Z" fill="#2D3748"/>
<path fill-rule="evenodd" clip-rule="evenodd" d="M238.656 18.8955C238.888 18.2054 238.569 18.08 238.017 17.5365C237.493 18.0195 238.163 18.5276 238.656 18.8955Z" fill="#2D3748"/>
<path fill-rule="evenodd" clip-rule="evenodd" d="M262.271 143.901C263.106 144.034 263.375 143.592 263.077 142.576C261.759 142.49 261.491 142.932 262.271 143.901Z" fill="#2D3748"/>
<path fill-rule="evenodd" clip-rule="evenodd" d="M216.66 37.2648C217.582 37.6861 217.229 38.5504 217.213 39.2806C217.688 38.7651 218.646 37.822 218.256 37.0813C217.655 35.9393 216.083 37.0011 216.66 37.2648Z" fill="#2D3748"/>
<path fill-rule="evenodd" clip-rule="evenodd" d="M185.278 22.8887C185.138 22.6147 184.997 22.3406 184.857 22.0665C184.285 22.5259 183.401 23.7399 184.31 24.3315C184.683 23.879 185.006 23.3984 185.278 22.8887Z" fill="#2D3748"/>
<path fill-rule="evenodd" clip-rule="evenodd" d="M196.332 30.9472C197.479 31.8459 196.929 29.0867 196.895 28.8615C196.724 29.185 195.753 30.4928 196.332 30.9472Z" fill="#2D3748"/>
<path fill-rule="evenodd" clip-rule="evenodd" d="M195.697 29.546C195.61 29.3182 195.522 29.0899 195.434 28.8615C194.969 29.2919 194.4 30.1703 195.168 30.6736C195.378 30.3211 195.555 29.9451 195.697 29.546Z" fill="#2D3748"/>
<path fill-rule="evenodd" clip-rule="evenodd" d="M202.977 39.0211C203.071 39.1071 203.164 39.1937 203.258 39.2806C203.636 38.5178 203.206 37.9452 202.492 37.9216C202.543 38.3497 202.705 38.7162 202.977 39.0211Z" fill="#2D3748"/>
<path fill-rule="evenodd" clip-rule="evenodd" d="M172.261 124.823C172.716 124.514 173.128 124.16 173.5 123.764C172.154 122.941 172.96 124.724 171.34 123.629C170.992 124.112 171.561 125.192 172.261 124.823Z" fill="#2D3748"/>
<path fill-rule="evenodd" clip-rule="evenodd" d="M228.813 199.643C229.325 198.858 229.417 198.881 228.718 198.284C228.135 199.255 228.195 199.006 228.813 199.643Z" fill="#2D3748"/>
<path fill-rule="evenodd" clip-rule="evenodd" d="M121.858 74.6497C122.136 74.9401 122.415 75.2309 122.693 75.5208C122.823 75.1407 123.533 74.0662 123.051 73.7088C122.654 74.0223 122.255 74.3358 121.858 74.6497Z" fill="#2D3748"/>
<path fill-rule="evenodd" clip-rule="evenodd" d="M131.767 77.524C131.322 77.4497 130.258 77.1254 130.012 77.539C130.663 78.0721 132.131 77.5852 131.767 77.524Z" fill="#2D3748"/>
</svg>
